<?xml version="1.0" standalone="no"?>
<!DOCTYPE svg PUBLIC "-//W3C//DTD SVG 20010904//EN"
 "http://www.w3.org/TR/2001/REC-SVG-20010904/DTD/svg10.dtd">
<svg version="1.0" xmlns="http://www.w3.org/2000/svg"
 width="360.000000pt" height="360.000000pt" viewBox="0 0 360.000000 360.000000"
 preserveAspectRatio="xMidYMid meet">
<metadata>
Created by potrace 1.14, written by Peter Selinger 2001-2017
</metadata>
<g transform="translate(0.000000,360.000000) scale(0.100000,-0.100000)"
fill="#000000" stroke="none">
<path d="M1605 3584 c-431 -64 -754 -215 -1042 -488 -451 -426 -650 -1074
-517 -1676 34 -152 64 -241 129 -377 68 -143 110 -213 202 -336 527 -699 1504
-912 2273 -495 258 140 500 360 653 595 360 552 391 1258 80 1832 -261 483
-689 803 -1227 917 -102 22 -153 26 -321 29 -110 2 -213 1 -230 -1z m323 -565
c357 -39 658 -211 871 -499 94 -126 158 -263 203 -430 29 -109 36 -380 14
-510 -78 -449 -403 -821 -836 -958 -153 -48 -204 -56 -375 -56 -182 -1 -267
14 -421 69 -186 67 -336 164 -472 304 -234 241 -355 566 -339 916 24 514 364
956 857 1113 83 26 165 43 275 56 63 7 129 6 223 -5z"/>
<path d="M1743 2940 c-131 -27 -268 -159 -358 -344 -24 -50 -47 -103 -50 -117
-6 -26 -5 -26 67 -37 271 -43 538 -43 796 0 l74 12 -6 29 c-8 40 -69 158 -124
240 -106 159 -263 244 -399 217z"/>
<path d="M1440 2889 c-86 -30 -249 -114 -315 -164 -64 -48 -179 -154 -173
-160 8 -8 223 -76 259 -81 29 -5 39 -3 39 7 0 22 95 213 131 266 18 26 53 69
78 96 24 26 42 49 40 51 -2 2 -29 -5 -59 -15z"/>
<path d="M2168 2828 c72 -90 120 -169 163 -271 l32 -79 36 7 c20 4 79 21 131
39 52 18 101 35 109 38 28 9 -117 137 -244 216 -73 45 -246 122 -274 122 -6 0
15 -33 47 -72z"/>
<path d="M844 2429 c-61 -93 -118 -216 -144 -309 -17 -60 -50 -240 -50 -272 0
-5 108 -8 239 -8 l240 0 5 53 c3 28 8 84 11 122 8 93 31 225 53 311 l19 70
-71 18 c-39 10 -113 34 -164 52 l-93 33 -45 -70z"/>
<path d="M2605 2459 c-44 -16 -109 -36 -145 -45 -36 -9 -66 -18 -68 -19 -1 -1
6 -36 17 -76 27 -99 49 -241 57 -371 l7 -108 238 0 239 0 0 29 c0 81 -54 293
-96 381 -13 28 -24 52 -24 55 0 3 -25 46 -56 95 -36 58 -61 90 -72 89 -9 0
-53 -14 -97 -30z"/>
<path d="M1295 2366 c-20 -65 -26 -91 -39 -156 -21 -110 -36 -234 -36 -307 l0
-63 586 0 585 0 -5 53 c-3 28 -8 84 -11 122 -7 78 -50 308 -64 341 -9 21 -12
21 -73 9 -201 -42 -623 -46 -837 -7 -69 12 -104 15 -106 8z"/>
<path d="M650 1743 c0 -41 35 -221 55 -286 38 -124 162 -357 190 -357 6 0 73
20 148 45 76 25 144 45 152 45 19 0 19 0 -9 122 -25 102 -40 212 -52 361 l-6
77 -239 0 c-131 0 -239 -3 -239 -7z"/>
<path d="M1220 1688 c0 -80 23 -245 52 -372 l22 -98 40 5 c23 3 97 13 166 22
213 29 647 12 792 -31 13 -4 20 12 38 88 24 107 45 247 55 366 l6 82 -585 0
-586 0 0 -62z"/>
<path d="M2466 1649 c-8 -131 -31 -286 -57 -378 -11 -40 -18 -75 -17 -76 2 -1
32 -10 68 -20 36 -9 108 -32 160 -50 52 -19 95 -33 95 -32 1 1 17 27 37 58
102 158 176 362 194 532 l6 67 -239 0 -240 0 -7 -101z"/>
<path d="M1635 1174 c-89 -7 -290 -36 -297 -43 -10 -9 22 -92 66 -169 20 -35
36 -68 36 -73 0 -5 4 -9 8 -9 4 0 15 -13 25 -29 23 -39 117 -128 165 -157 139
-83 290 -56 422 76 83 82 190 259 206 338 6 28 4 29 -38 35 -23 3 -72 11 -108
16 -70 11 -403 21 -485 15z"/>
<path d="M1205 1105 c-5 -2 -63 -20 -127 -39 -65 -20 -118 -40 -118 -45 0 -5
29 -36 65 -69 101 -95 224 -173 355 -224 119 -47 118 -48 45 44 -61 77 -128
194 -168 296 -16 39 -25 46 -52 37z"/>
<path d="M2326 1023 c-46 -107 -110 -211 -170 -278 -24 -28 -43 -52 -41 -53 5
-5 69 16 125 40 133 58 238 126 341 219 38 34 69 66 69 70 0 4 -8 9 -17 12
-10 3 -70 21 -133 41 -63 20 -120 36 -126 36 -6 0 -28 -39 -48 -87z"/>
</g>
</svg>
